<svg width="180" height="180" viewBox="0 0 180 180" fill="none" xmlns="http://www.w3.org/2000/svg">
<g id="&#229;&#133;&#172;&#229;&#188;&#128;">
<circle id="&#230;&#164;&#173;&#229;&#156;&#134;&#229;&#189;&#162;" opacity="0.08" cx="90" cy="90" r="90" fill="#05CDCD"/>
<g id="&#231;&#188;&#150;&#231;&#187;&#132; 3" filter="url(#filter0_d)">
<rect id="&#231;&#159;&#169;&#229;&#189;&#162;" x="42" y="37" width="96" height="106" rx="8" fill="url(#paint0_linear)"/>
<path id="&#229;&#189;&#162;&#231;&#138;&#182;&#231;&#187;&#147;&#229;&#144;&#136;" opacity="0.2" fill-rule="evenodd" clip-rule="evenodd" d="M50 37C45.5817 37 42 40.5817 42 45V135C42 139.418 45.5817 143 50 143H130C134.418 143 138 139.418 138 135V45C138 40.5817 134.418 37 130 37H50ZM57 45C52.5817 45 49 48.5817 49 53V127C49 131.418 52.5817 135 57 135H123C127.418 135 131 131.418 131 127V53C131 48.5817 127.418 45 123 45H57Z" fill="white"/>
<rect id="&#231;&#159;&#169;&#229;&#189;&#162;_2" opacity="0.7" x="72" y="95" width="25" height="5" rx="2.5" fill="white"/>
<rect id="&#231;&#159;&#169;&#229;&#189;&#162;&#229;&#164;&#141;&#229;&#136;&#182; 2" opacity="0.5" x="72" y="106" width="38" height="5" rx="2.5" fill="white"/>
<rect id="&#231;&#159;&#169;&#229;&#189;&#162;&#229;&#164;&#141;&#229;&#136;&#182; 3" opacity="0.5" x="72" y="117" width="9" height="5" rx="2.5" fill="white"/>
</g>
<rect id="&#231;&#159;&#169;&#229;&#189;&#162;_3" opacity="0.8" x="26" y="91" width="31" height="31" rx="4" fill="url(#paint1_linear)"/>
<path id="&#229;&#189;&#162;&#231;&#138;&#182;" opacity="0.5" fill-rule="evenodd" clip-rule="evenodd" d="M46.5617 106.877C46.5617 106.877 48.5854 106.453 48.905 104.002C49.2389 101.917 47.144 100.51 45.4223 99.8076L46.2376 96.7649L44.4555 96.2874L43.6402 99.3301L42.4871 99.0211L43.3023 95.9784L41.5202 95.5009L40.705 98.5436L37.1408 97.5886L36.5973 99.617L37.96 99.9822C38.589 100.151 38.7383 100.432 38.6175 100.883L36.3528 109.335C36.1717 110.011 35.7968 110.152 35.3775 110.04L34.1195 109.703L33.4712 111.703L36.9305 112.63L36.085 115.785L37.8671 116.263L38.7126 113.108L39.8657 113.416L39.0203 116.572L40.8024 117.049L41.6478 113.894L42.0671 114.006C45.7362 114.989 47.4026 113.383 48.0971 110.791C48.7916 108.199 46.5617 106.877 46.5617 106.877ZM42.1987 101.894L43.4518 102.23C44.2872 102.454 46.031 103.047 45.5918 104.686C45.184 106.208 44.1187 106.424 43.4608 106.374L41.1634 105.758L42.1987 101.894ZM39.6105 111.554L41.6054 112.088C43.4952 112.595 44.6702 111.989 45.044 110.594C45.4179 109.199 43.4806 108.449 42.9556 108.309L40.6458 107.69L39.6105 111.554Z" fill="white"/>
<g id="&#232;&#183;&#175;&#229;&#190;&#132; 4" opacity="0.8" filter="url(#filter1_d)">
<path d="M30.915 77.1406C30.915 77.1406 42.0229 74.8989 45.0526 71.8386C54.639 62.1554 57.4414 46.6204 67.3541 46.0124C74.0941 45.599 77.4275 55.6194 83.9349 59.4347C89.912 62.9392 97.1742 57.0078 103.325 58.8587C109.919 60.8432 113.255 70.4835 121.322 70.4835C129 70.4835 132.371 63.7159 137.022 56.9177C140 52.5651 147.548 52.5651 147.548 52.5651" stroke="white" stroke-width="4" stroke-linecap="round"/>
</g>
<g id="&#230;&#164;&#173;&#229;&#156;&#134;&#229;&#189;&#162;_2" opacity="0.8" filter="url(#filter2_d)">
<circle cx="133" cy="137" r="15" fill="white"/>
</g>
<g id="&#229;&#133;&#168;&#231;&#144;&#131;">
<circle id="Ellipse 1" cx="133" cy="137" r="9.5" stroke="#38D8D7"/>
<path id="Ellipse 2" d="M136.667 137C136.667 139.712 136.208 142.144 135.485 143.879C135.123 144.747 134.705 145.418 134.266 145.863C133.829 146.307 133.401 146.5 133 146.5C132.599 146.5 132.172 146.307 131.735 145.863C131.296 145.418 130.877 144.747 130.515 143.879C129.792 142.144 129.333 139.712 129.333 137C129.333 134.288 129.792 131.856 130.515 130.121C130.877 129.253 131.296 128.582 131.735 128.137C132.172 127.693 132.599 127.5 133 127.5C133.401 127.5 133.829 127.693 134.266 128.137C134.705 128.582 135.123 129.253 135.485 130.121C136.208 131.856 136.667 134.288 136.667 137Z" stroke="#38D8D7"/>
<path id="Rectangle 1" d="M123 136.5H143V137.5H123V136.5Z" fill="#38D8D7"/>
<path id="Rectangle 3" d="M125 142C125 142 129.017 140 133 140C136.983 140 141 142 141 142V143C141 143 136.983 141 133 141C129.017 141 125 143 125 143V142Z" fill="#38D8D7"/>
<path id="Rectangle 2" d="M125 131C125 131 129.517 133 133.5 133C137.483 133 141 131 141 131V132C141 132 137.483 134 133.5 134C129.517 134 125 132 125 132V131Z" fill="#38D8D7"/>
</g>
</g>
<defs>
<filter id="filter0_d" x="32" y="33" width="116" height="126" filterUnits="userSpaceOnUse" color-interpolation-filters="sRGB">
<feFlood flood-opacity="0" result="BackgroundImageFix"/>
<feColorMatrix in="SourceAlpha" type="matrix" values="0 0 0 0 0 0 0 0 0 0 0 0 0 0 0 0 0 0 127 0" result="hardAlpha"/>
<feOffset dy="6"/>
<feGaussianBlur stdDeviation="5"/>
<feColorMatrix type="matrix" values="0 0 0 0 0.0196078 0 0 0 0 0.803922 0 0 0 0 0.803922 0 0 0 0.0991313 0"/>
<feBlend mode="normal" in2="BackgroundImageFix" result="effect1_dropShadow"/>
<feBlend mode="normal" in="SourceGraphic" in2="effect1_dropShadow" result="shape"/>
</filter>
<filter id="filter1_d" x="22.9146" y="44" width="132.633" height="47.1411" filterUnits="userSpaceOnUse" color-interpolation-filters="sRGB">
<feFlood flood-opacity="0" result="BackgroundImageFix"/>
<feColorMatrix in="SourceAlpha" type="matrix" values="0 0 0 0 0 0 0 0 0 0 0 0 0 0 0 0 0 0 127 0" result="hardAlpha"/>
<feOffset dy="6"/>
<feGaussianBlur stdDeviation="3"/>
<feColorMatrix type="matrix" values="0 0 0 0 0.0196078 0 0 0 0 0.803922 0 0 0 0 0.803922 0 0 0 0.102 0"/>
<feBlend mode="normal" in2="BackgroundImageFix" result="effect1_dropShadow"/>
<feBlend mode="normal" in="SourceGraphic" in2="effect1_dropShadow" result="shape"/>
</filter>
<filter id="filter2_d" x="110" y="122" width="46" height="46" filterUnits="userSpaceOnUse" color-interpolation-filters="sRGB">
<feFlood flood-opacity="0" result="BackgroundImageFix"/>
<feColorMatrix in="SourceAlpha" type="matrix" values="0 0 0 0 0 0 0 0 0 0 0 0 0 0 0 0 0 0 127 0" result="hardAlpha"/>
<feOffset dy="8"/>
<feGaussianBlur stdDeviation="4"/>
<feColorMatrix type="matrix" values="0 0 0 0 0.0196078 0 0 0 0 0.803922 0 0 0 0 0.803922 0 0 0 0.0962631 0"/>
<feBlend mode="normal" in2="BackgroundImageFix" result="effect1_dropShadow"/>
<feBlend mode="normal" in="SourceGraphic" in2="effect1_dropShadow" result="shape"/>
</filter>
<linearGradient id="paint0_linear" x1="42" y1="37" x2="42" y2="143" gradientUnits="userSpaceOnUse">
<stop stop-color="#8AE7E7"/>
<stop offset="1" stop-color="#05CDCD"/>
</linearGradient>
<linearGradient id="paint1_linear" x1="26" y1="91" x2="26" y2="122" gradientUnits="userSpaceOnUse">
<stop stop-color="#FFDD00"/>
<stop offset="1" stop-color="#FFB900"/>
</linearGradient>
</defs>
</svg>
